<?xml version="1.0" encoding="UTF-8"?><svg xmlns="http://www.w3.org/2000/svg" viewBox="0 0 445.3 153.03"><g id="a"/><g id="b"><g id="c"><path d="M201.03,26.54v-9.6L175.06,0H42.92L10.73,32.19H0v23.15H11.29v52.52l45.18,45.18h88.66l56.19-56.19V55.34h21.33V26.54h-21.61Zm-16.52,66.87l-46.69,46.69H64.15L26.61,102.56V58.92l-.47-19.24L52.89,12.93h109.8l21.59,14.08v7.98l.23,23.93v34.49ZM222.65,26.54v28.8h21.33v41.51l56.19,56.19h88.66l45.18-45.18V55.34h11.29v-23.15h-10.73L402.38,0h-132.14l-25.98,16.94v9.6h-21.61Zm38.14,32.38l.23-23.93v-7.98l21.59-14.08h109.8l26.75,26.75-.47,19.24v43.64l-37.54,37.54h-73.67l-46.69-46.69V58.92Z"/></g></g></svg>