<svg xmlns="http://www.w3.org/2000/svg" xmlns:xlink="http://www.w3.org/1999/xlink" width="35" height="35" viewBox="0 0 35 35">
  <defs>
    <clipPath id="clip-path">
      <rect id="Rectangle_76" data-name="Rectangle 76" width="35" height="35" transform="translate(442 1001)" fill="#fff" stroke="#707070" stroke-width="1"/>
    </clipPath>
  </defs>
  <g id="Mask_Group_37" data-name="Mask Group 37" transform="translate(-442 -1001)" clip-path="url(#clip-path)">
    <path id="link-solid" d="M33.578,15.5A8.374,8.374,0,0,0,22.789,2.768l-.093.064a1.851,1.851,0,0,0,2.154,3.012l.093-.064a4.668,4.668,0,0,1,6.011,7.1l-6.5,6.509a4.668,4.668,0,0,1-7.1-6.011l.064-.093a1.851,1.851,0,1,0-3.011-2.154l-.064.093A8.37,8.37,0,0,0,27.075,22.007ZM3.486,14.148A8.374,8.374,0,0,0,14.276,26.883l.093-.064a1.851,1.851,0,1,0-2.154-3.011l-.093.064A4.67,4.67,0,0,1,6.11,16.766l6.5-6.5a4.669,4.669,0,0,1,7.1,6.017l-.064.093a1.851,1.851,0,1,0,3.012,2.154l.064-.093A8.371,8.371,0,0,0,9.99,7.645Z" transform="translate(440.968 1003.674)" fill="#fff"/>
  </g>
</svg>
