<svg xmlns="http://www.w3.org/2000/svg" xmlns:xlink="http://www.w3.org/1999/xlink" width="35" height="35" viewBox="0 0 35 35">
  <defs>
    <clipPath id="clip-path">
      <rect id="Rectangle_69" data-name="Rectangle 69" width="35" height="35" transform="translate(210 1001)" fill="#fff" stroke="#707070" stroke-width="1"/>
    </clipPath>
  </defs>
  <g id="Mask_Group_31" data-name="Mask Group 31" transform="translate(-210 -1001)" clip-path="url(#clip-path)">
    <path id="star-regular_1_" data-name="star-regular(1)" d="M19.089,0a1.591,1.591,0,0,1,1.432.9l4.548,9.367,10.164,1.505a1.587,1.587,0,0,1,.888,2.7l-7.373,7.307,1.744,10.31a1.594,1.594,0,0,1-2.321,1.671L19.089,28.9,9.952,33.755a1.513,1.513,0,0,1-1.624-.113,1.771,1.771,0,0,1-.7-1.558l1.8-10.31L2.063,14.467a1.587,1.587,0,0,1,.887-2.7l10.158-1.505L17.657.9A1.6,1.6,0,0,1,19.089,0Zm0,5.235-3.481,7.177a1.618,1.618,0,0,1-1.2.882L6.563,14.448l5.7,5.642a1.6,1.6,0,0,1,.444,1.4l-1.339,7.93,6.975-3.726a1.58,1.58,0,0,1,1.5,0l6.975,3.726-1.339-7.93a1.609,1.609,0,0,1,.451-1.4l5.7-5.642-7.844-1.154a1.6,1.6,0,0,1-1.2-.882Z" transform="translate(208.409 1001.529)" fill="#fff"/>
  </g>
</svg>
